<?xml version="1.0" standalone="no"?>
<!DOCTYPE svg PUBLIC "-//W3C//DTD SVG 20010904//EN"
 "http://www.w3.org/TR/2001/REC-SVG-20010904/DTD/svg10.dtd">
<svg version="1.0" xmlns="http://www.w3.org/2000/svg"
 width="700.000000pt" height="700.000000pt" viewBox="0 0 700.000000 700.000000"
 preserveAspectRatio="xMidYMid meet">
<metadata>
Created by potrace 1.11, written by Peter Selinger 2001-2013
</metadata>
<g transform="translate(0.000000,700.000000) scale(0.100000,-0.100000)"
fill="#000000" stroke="none">
<path d="M876 5901 c-2 -3 -2 -96 -2 -206 1 -110 0 -206 -2 -212 -3 -10 -100
-13 -438 -13 l-434 0 2 -1927 3 -1928 27 -73 c36 -100 82 -174 153 -247 88
-91 184 -149 306 -182 60 -17 228 -18 2994 -18 1612 0 2948 3 2970 6 244 38
457 233 524 479 20 74 20 98 21 2201 l0 2126 -3060 0 c-1684 0 -3062 -3 -3064
-6z m5689 -2306 c1 -1768 0 -1873 -17 -1920 -20 -59 -82 -120 -137 -135 -24
-6 -897 -10 -2583 -10 -1402 0 -2548 1 -2548 3 0 1 7 34 15 72 14 62 16 300
15 1968 l0 1897 2627 -2 2628 -3 0 -1870z m-5691 -235 l0 -1665 -21 -40 c-51
-98 -155 -144 -257 -115 -59 16 -119 69 -141 122 -17 40 -18 141 -19 1698 -1
910 0 1658 2 1663 2 4 101 6 220 5 l216 -3 0 -1665z"/>
<path d="M1793 5032 l-43 -3 0 -1092 0 -1093 1095 0 1095 0 0 1093 0 1093 -32
1 c-145 2 -2083 3 -2115 1z m1707 -657 c3 -121 4 -416 2 -656 l-2 -437 -653 2
-652 1 -3 655 -2 655 652 0 653 0 5 -220z"/>
<path d="M4405 5032 l-30 -3 1 -210 c1 -115 4 -213 8 -217 4 -4 399 -7 877 -7
l869 -1 -2 219 -3 219 -845 2 c-465 0 -858 0 -875 -2z"/>
<path d="M4379 4121 c-3 -136 -1 -392 3 -397 4 -4 870 -6 1631 -4 l118 0 -1
218 -1 219 -875 0 -874 0 -1 -36z"/>
<path d="M4399 3280 c-22 -5 -22 -7 -23 -218 -1 -133 3 -213 9 -215 6 -2 399
-3 875 -3 l865 1 3 218 2 217 -57 0 c-570 4 -1657 4 -1674 0z"/>
<path d="M1750 2189 l0 -219 1095 0 1095 0 0 219 0 219 -1095 0 -1095 0 0
-219z"/>
<path d="M4384 2403 c-5 -2 -9 -90 -8 -216 l1 -212 877 -3 876 -2 -2 217 -3
218 -866 1 c-476 0 -869 -1 -875 -3z"/>
</g>
</svg>
