<svg width="106.7" height="23.02" version="1.1" viewBox="0 -1 3.911 3.454" xmlns="http://www.w3.org/2000/svg">
  <path d="m-4.853-1c-0.6261 0-1.032 0.3027-1.032 0.7843 0 0.8462 1.249 0.6398 1.249 0.9529 0 0.086-0.07568 0.1238-0.1926 0.1238-0.2442 0-0.6708-0.1686-0.9185-0.375l-0.2958 0.5986c0.3199 0.2442 0.7878 0.3853 1.207 0.3853 0.5435 0 1.015-0.2374 1.015-0.774 0-0.8738-1.249-0.6846-1.249-0.9873 0-0.07224 0.05848-0.09976 0.1479-0.09976 0.2098 0 0.5848 0.1479 0.829 0.2821l0.289-0.6054c-0.2718-0.172-0.6674-0.2855-1.049-0.2855z" style="fill:#506aa7"/>
  <path d="m-2.428-0.9897c-0.7568 0-1.307 0.516-1.307 1.225 0 0.719 0.5366 1.245 1.276 1.245 0.3715 0 0.7809-0.1892 1.049-0.4816l-0.461-0.4919c-0.1582 0.1686-0.375 0.2752-0.547 0.2752-0.289 0-0.4988-0.2339-0.4988-0.5573 0-0.3199 0.2098-0.5504 0.4988-0.5504 0.1858 0 0.4025 0.1273 0.547 0.3234l0.461-0.547c-0.2477-0.2683-0.6502-0.4403-1.018-0.4403z" style="fill:#506aa7"/>
  <path d="m1.093 1.446v-2.411h-0.7981v0.9357h-0.7465v-0.9357h-0.7981v2.411h0.7981v-0.8703h0.7465v0.8703z" style="fill:#506aa7"/>
  <path d="m4.99 0.7819v-1.748h-0.7981v2.411h1.803v-0.6639z" style="fill:#506aa7"/>
  <path d="m6.999 1.446v-2.411h-0.7981v2.411z" style="fill:#506aa7"/>
  <path d="m8.984 1.105 0.1204 0.3406h0.8497l-0.9804-2.411h-0.8187l-1.018 2.411h0.8187l0.1238-0.3406zm-0.1961-0.571h-0.5022l0.2546-0.7052z" style="fill:#506aa7"/>
  <g transform="translate(-2.336)">
    <path d="m5.852-0.6342v1.746h-1.746v-1.746z" style="fill:none;stroke-width:.665;stroke:#de3030"/>
    <path d="m3.773 2.121h2.411" style="fill:none;stroke-width:.665;stroke:#de3030"/>
  </g>
</svg>
