<?xml version="1.0" encoding="UTF-8" standalone="no"?>
<svg
   xmlns:dc="http://purl.org/dc/elements/1.1/"
   xmlns:cc="http://creativecommons.org/ns#"
   xmlns:rdf="http://www.w3.org/1999/02/22-rdf-syntax-ns#"
   xmlns:svg="http://www.w3.org/2000/svg"
   xmlns="http://www.w3.org/2000/svg"
   xmlns:sodipodi="http://sodipodi.sourceforge.net/DTD/sodipodi-0.dtd"
   xmlns:inkscape="http://www.inkscape.org/namespaces/inkscape"
   inkscape:export-ydpi="120"
   inkscape:export-xdpi="120"
   inkscape:export-filename="C:\Users\carli\Desktop\scholia\scholia\app\static\images\scholia_social_media.png"
   inkscape:version="1.0 (4035a4fb49, 2020-05-01)"
   sodipodi:docname="Scholia_Logo_Improved.svg"
   height="595"
   width="595"
   viewBox="0 -1 21.816668 89.25"
   version="1.1"
   id="svg10">
  <sodipodi:namedview
     inkscape:document-rotation="0"
     fit-margin-bottom="0"
     fit-margin-right="0"
     fit-margin-left="0"
     fit-margin-top="0"
     inkscape:current-layer="svg10"
     inkscape:window-maximized="1"
     inkscape:window-y="-11"
     inkscape:window-x="115"
     inkscape:cy="552.5688"
     inkscape:cx="-45.771539"
     inkscape:zoom="1"
     inkscape:guide-bbox="true"
     showguides="true"
     showgrid="false"
     id="namedview15"
     inkscape:window-height="2126"
     inkscape:window-width="3714"
     inkscape:pageshadow="2"
     inkscape:pageopacity="1"
     guidetolerance="10"
     gridtolerance="10"
     objecttolerance="10"
     borderopacity="1"
     bordercolor="#666666"
     pagecolor="#ffffff" />
  <metadata
     id="metadata16">
    <rdf:RDF>
      <cc:Work
         rdf:about="">
        <dc:format>image/svg+xml</dc:format>
        <dc:type
           rdf:resource="http://purl.org/dc/dcmitype/StillImage" />
        <dc:title></dc:title>
      </cc:Work>
    </rdf:RDF>
  </metadata>
  <defs
     id="defs14" />
  <path
     inkscape:connector-curvature="0"
     d="m -18.108618,56.874751 h 57.919773 a 4.4553672,4.4553672 0 0 0 4.455368,-4.455366 V 12.32108 h -57.919775 v 40.098305 a 4.4553672,4.4553672 0 0 1 -8.910733,0 V 16.776446 h 8.910733"
     id="path2"
     style="fill:none;stroke:#09af8a;stroke-width:4.45536" />
  <path
     inkscape:connector-curvature="0"
     fill="transparent"
     d="M 19.762004,21.231814 H 37.583472 M 19.762004,30.142548 H 37.583472 M 19.762004,39.053283 H 37.583472 M 19.762004,47.964016 H 37.583472"
     id="path4"
     style="stroke:#09af8a;stroke-width:4.45536" />
  <path
     inkscape:connector-curvature="0"
     d="M -6.9701999,21.231814 H 13.078952 V 39.053283 H -4.7425165 V 23.459498 M -6.9701999,47.964016 H 15.306635"
     id="path6"
     style="fill:none;stroke:#de3030;stroke-width:4.45536" />
  <path
     inkscape:connector-curvature="0"
     id="path855"
     style="font-style:normal;font-variant:normal;font-weight:normal;font-stretch:normal;font-size:3.44px;font-family:Trueno;-inkscape-font-specification:Trueno;fill:#506aa7;stroke-width:4.45536"
     d="m -19.366101,66.10618 c -2.789417,0 -4.597939,1.348728 -4.597939,3.494433 0,3.770309 5.563505,2.850721 5.563505,4.245429 0,0.383162 -0.337182,0.551753 -0.858281,0.551753 -1.088179,0 -2.98866,-0.750996 -4.092166,-1.670584 l -1.318075,2.666804 c 1.42536,1.088179 3.509759,1.716565 5.379587,1.716565 2.421582,0 4.521307,-1.057526 4.521307,-3.448454 0,-3.892922 -5.563505,-3.049967 -5.563505,-4.398695 0,-0.321856 0.260549,-0.444469 0.659038,-0.444469 0.934913,0 2.605498,0.659038 3.693677,1.256771 l 1.287424,-2.697458 c -1.210792,-0.766323 -2.973334,-1.272095 -4.674572,-1.272095 z" />
  <path
     inkscape:connector-curvature="0"
     id="path857"
     style="font-style:normal;font-variant:normal;font-weight:normal;font-stretch:normal;font-size:3.44px;font-family:Trueno;-inkscape-font-specification:Trueno;fill:#506aa7;stroke-width:4.45536"
     d="m -8.5599875,66.152158 c -3.3718215,0 -5.8240555,2.29897 -5.8240555,5.456222 0,3.20323 2.390928,5.548179 5.6861181,5.548179 1.6552575,0 3.4791069,-0.842956 4.6745699,-2.145705 L -6.077101,72.81917 c -0.7050166,0.750996 -1.6705829,1.226116 -2.4369068,1.226116 -1.2874218,0 -2.2223362,-1.042199 -2.2223362,-2.482886 0,-1.425361 0.9349144,-2.452234 2.2223362,-2.452234 0.8276288,0 1.7931963,0.567078 2.4369068,1.440687 l 2.053746,-2.436907 C -5.12686,66.918481 -6.9200552,66.152158 -8.5599875,66.152158 Z" />
  <path
     inkscape:connector-curvature="0"
     id="path859"
     style="font-style:normal;font-variant:normal;font-weight:normal;font-stretch:normal;font-size:3.44px;font-family:Trueno;-inkscape-font-specification:Trueno;fill:#506aa7;stroke-width:4.45536"
     d="M 7.1266466,77.003294 V 66.259443 H 3.5709075 v 4.168799 H 0.24506511 V 66.259443 H -3.3106744 V 77.003294 H 0.24506511 V 73.125699 H 3.5709075 v 3.877595 z" />
  <path
     inkscape:connector-curvature="0"
     id="path863"
     style="font-style:normal;font-variant:normal;font-weight:normal;font-stretch:normal;font-size:3.44px;font-family:Trueno;-inkscape-font-specification:Trueno;fill:#506aa7;stroke-width:4.45536"
     d="m 24.492006,74.045286 v -7.785843 h -3.55574 v 10.743851 h 8.031068 v -2.958008 z" />
  <path
     inkscape:connector-curvature="0"
     id="path865"
     style="font-style:normal;font-variant:normal;font-weight:normal;font-stretch:normal;font-size:3.44px;font-family:Trueno;-inkscape-font-specification:Trueno;fill:#506aa7;stroke-width:4.45536"
     d="M 33.442421,77.003294 V 66.259443 h -3.55574 v 10.743851 z" />
  <path
     inkscape:connector-curvature="0"
     id="path867"
     style="font-style:normal;font-variant:normal;font-weight:normal;font-stretch:normal;font-size:3.44px;font-family:Trueno;-inkscape-font-specification:Trueno;fill:#506aa7;stroke-width:4.45536"
     d="m 42.286271,75.485975 0.536425,1.517319 h 3.785637 L 42.240291,66.259443 H 38.592594 L 34.05596,77.003294 h 3.647699 l 0.551753,-1.517319 z M 41.412662,72.941782 H 39.175 l 1.134158,-3.141925 z" />
  <path
     sodipodi:nodetypes="ccccc"
     inkscape:connector-curvature="0"
     id="path827"
     d="m 17.921995,67.736139 v 7.781076 h -7.781077 v -7.781076 z"
     style="fill:none;stroke:#de3030;stroke-width:2.9626;stroke-miterlimit:4;stroke-dasharray:none" />
  <path
     inkscape:connector-curvature="0"
     id="path6-7"
     d="M 8.6596209,80.012026 H 19.403293"
     style="fill:none;stroke:#de3030;stroke-width:2.9626;stroke-miterlimit:4;stroke-dasharray:none" />
</svg>
